<?xml version="1.0" encoding="UTF-8"?>
<svg version="1.1" xmlns="http://www.w3.org/2000/svg" width="808" height="309">
<path d="M0 0 C66.66 0 133.32 0 202 0 C202 68.64 202 137.28 202 208 C135.34 208 68.68 208 0 208 C0 139.36 0 70.72 0 0 Z M10 24 C10 31.59 10 39.18 10 47 C18.25 47 26.5 47 35 47 C35 93.86 35 140.72 35 189 C42.26 189 49.52 189 57 189 C57 142.14 57 95.28 57 47 C65.25 47 73.5 47 82 47 C82 39.41 82 31.82 82 24 C58.24 24 34.48 24 10 24 Z M94 24 C94 78.45 94 132.9 94 189 C100.27 189 106.54 189 113 189 C113.33 152.37 113.66 115.74 114 78 C116.24968524 86.99874097 116.24968524 86.99874097 116.74267578 90.47338867 C116.8571405 91.26461624 116.97160522 92.05584381 117.08953857 92.87104797 C117.20694397 93.71153183 117.32434937 94.55201569 117.4453125 95.41796875 C117.57625305 96.32923019 117.7071936 97.24049164 117.84210205 98.17936707 C118.12518883 100.15137611 118.40650194 102.12364043 118.68621826 104.09613037 C119.44274656 109.42613476 120.21451701 114.75393877 120.984375 120.08203125 C121.14549774 121.19936646 121.30662048 122.31670166 121.47262573 123.46789551 C123.22326007 135.58900833 125.02143622 147.70289341 126.84075928 159.81387329 C127.19682788 162.1873453 127.55152434 164.56102356 127.90484619 166.93490601 C128.39939086 170.25659089 128.89830023 173.57759072 129.3984375 176.8984375 C129.5460553 177.89513962 129.6936731 178.89184174 129.84576416 179.91874695 C129.98351257 180.82647354 130.12126099 181.73420013 130.26318359 182.66943359 C130.38196869 183.46175385 130.50075378 184.2540741 130.62313843 185.07040405 C130.92489558 187.07268539 130.92489558 187.07268539 132 189 C138.93 189 145.86 189 153 189 C156.18062885 169.60660817 158.94944347 150.18666243 161.44595337 130.69342041 C163.0948954 117.81929792 164.80490042 104.96589592 166.79516602 92.1394043 C167.01450806 90.71688354 167.01450806 90.71688354 167.23828125 89.265625 C167.36243408 88.47961914 167.48658691 87.69361328 167.61450195 86.88378906 C168.18681247 82.60251496 168.57020789 78.29792113 169 74 C169.33 111.95 169.66 149.9 170 189 C176.93 189 183.86 189 191 189 C192.10752156 185.67743533 192.12583449 183.21314715 192.12698364 179.71255493 C192.12980347 178.39463455 192.13262329 177.07671417 192.13552856 175.71885681 C192.13358416 174.25479112 192.13153599 172.79072557 192.12939453 171.32666016 C192.13074931 169.78755146 192.13252967 168.24844308 192.13470459 166.70933533 C192.1392706 162.52541833 192.13749257 158.34152595 192.1343255 154.15760851 C192.13179671 149.78104618 192.13414098 145.40448599 192.13571167 141.02792358 C192.13753223 133.67551291 192.13513043 126.32311227 192.13037109 118.97070312 C192.12493274 110.47119072 192.12668849 101.97170232 192.1321975 93.4721905 C192.13673668 86.17699339 192.1373751 78.8818035 192.13475883 71.58660543 C192.13319998 67.22863775 192.13299151 62.87068134 192.13629532 58.51271439 C192.13918556 54.41369314 192.13717707 50.3147028 192.13140106 46.21568489 C192.13007949 44.71165455 192.13045736 43.2076216 192.13266373 41.7035923 C192.135399 39.64949729 192.13196498 37.59550109 192.12698364 35.54141235 C192.12660662 34.39214579 192.12622959 33.24287922 192.12584114 32.05878639 C192.01046652 29.25440696 191.64161437 26.72671991 191 24 C186.76419747 23.92592094 182.52873659 23.87143304 178.29248047 23.83520508 C176.85100742 23.82010517 175.40958041 23.79962342 173.96826172 23.77368164 C171.89799657 23.7373487 169.82833793 23.72028671 167.7578125 23.70703125 C165.88826904 23.68346558 165.88826904 23.68346558 163.98095703 23.65942383 C162.99724121 23.77181396 162.01352539 23.8842041 161 24 C159.07708312 26.88437532 158.6847096 27.88967467 158.26977539 31.15405273 C158.10433983 32.40828285 158.10433983 32.40828285 157.93556213 33.68785095 C157.76829872 35.04699364 157.76829872 35.04699364 157.59765625 36.43359375 C157.4744249 37.38073746 157.35119354 38.32788116 157.22422791 39.3037262 C156.82956445 42.34741554 156.44558677 45.3923339 156.0625 48.4375 C155.55655952 52.39494253 155.04626828 56.35181619 154.53515625 60.30859375 C154.40940216 61.28818054 154.28364807 62.26776733 154.15408325 63.27703857 C153.20560346 70.60080851 152.13616883 77.90139732 151.01966858 85.20118713 C150.048712 91.57904397 149.22586895 97.96444265 148.5 104.375 C147.51843914 112.75834446 146.49326038 121.13370468 145.375 129.5 C145.25189453 130.44407715 145.12878906 131.3881543 145.00195312 132.36083984 C144.88529297 133.2214502 144.76863281 134.08206055 144.6484375 134.96875 C144.54708496 135.72607422 144.44573242 136.48339844 144.34130859 137.26367188 C144 139 144 139 143 140 C140.99211306 129.93208463 139.3544903 119.86139748 137.94140625 109.6953125 C137.20285436 104.39472472 136.43243697 99.09928024 135.65234375 93.8046875 C135.52997345 92.97378601 135.40760315 92.14288452 135.28152466 91.2868042 C135.02626387 89.55407139 134.77096324 87.82134445 134.515625 86.08862305 C132.81344173 74.53611794 131.12133278 62.98316111 129.53515625 51.4140625 C129.420047 50.57575394 129.30493774 49.73744537 129.18634033 48.87373352 C128.63910395 44.88130189 128.09676221 40.8882791 127.56103516 36.89428711 C127.36759218 35.47248272 127.17407443 34.0506885 126.98046875 32.62890625 C126.81442139 31.39213135 126.64837402 30.15535645 126.47729492 28.88110352 C126.15676247 26.06767631 126.15676247 26.06767631 125 24 C114.77 24 104.54 24 94 24 Z " fill="#040303" transform="translate(588,83)"/>
<path d="M0 0 C56.76 0 113.52 0 172 0 C172 15.51 172 31.02 172 47 C163.75 47 155.5 47 147 47 C147 52.94 147 58.88 147 65 C170.76 65 194.52 65 219 65 C220.13467456 67.26934911 220.12435558 68.49115562 220.12304783 71.00988197 C220.12503888 71.8533624 220.12702993 72.69684283 220.12908131 73.56588328 C220.12616847 74.49777614 220.12325563 75.42966899 220.12025452 76.38980103 C220.12153615 77.86856848 220.12153615 77.86856848 220.12284368 79.37721002 C220.1244991 82.70152402 220.11897608 86.02578826 220.11352539 89.35009766 C220.11324351 91.72474669 220.11340128 94.09939581 220.1139679 96.4740448 C220.11422588 102.26638889 220.10987787 108.05871651 220.10353024 113.85105683 C220.0963922 120.58928876 220.09488599 127.32751832 220.09374207 134.0657535 C220.09155194 146.08290166 220.08489291 158.10004303 220.07543945 170.1171875 C220.06626433 181.79264288 220.05918398 193.46809643 220.05493164 205.14355469 C220.05466892 205.86289517 220.05440619 206.58223566 220.05413551 207.32337435 C220.0528305 210.93199424 220.05156678 214.54061414 220.05032361 218.14923406 C220.03995221 248.09949412 220.02226077 278.04974627 220 308 C215.20241845 309.23444788 210.51438101 309.13934196 205.59783936 309.12698364 C204.64688865 309.12854363 203.69593794 309.13010362 202.71617055 309.13171089 C199.52788703 309.13570141 196.33965107 309.13253879 193.15136719 309.12939453 C190.86656669 309.1307494 188.58176641 309.13252981 186.29696655 309.13470459 C180.09077641 309.13926772 173.88460287 309.13749422 167.67841244 309.1343255 C161.1926106 309.13179737 154.7068102 309.1341406 148.2210083 309.13571167 C136.6351729 309.13764813 125.0493451 309.13453783 113.4635109 309.12945233 C102.94962852 309.12498039 92.43575718 309.12576421 81.921875 309.13037109 C69.71670857 309.13571654 57.51154999 309.13771819 45.30638242 309.13475883 C38.84370486 309.13319607 32.38103492 309.13300238 25.91835785 309.13629532 C19.84782271 309.13917241 13.77730853 309.13720136 7.70677567 309.13140106 C5.4721874 309.13007282 3.23759738 309.13046865 1.0030098 309.13266373 C-2.0332757 309.13537259 -5.06949285 309.13199742 -8.10577393 309.12698364 C-9.45033877 309.13032973 -9.45033877 309.13032973 -10.82206655 309.13374341 C-16.88584982 309.11415018 -16.88584982 309.11415018 -18 308 C-18.09805942 304.87760807 -18.12990476 301.77731859 -18.12025452 298.65452576 C-18.12153615 297.16478928 -18.12153615 297.16478928 -18.12284368 295.64495713 C-18.12450149 292.28989819 -18.11897221 288.93488837 -18.11352539 285.57983398 C-18.11324356 283.18562827 -18.11340118 280.79142246 -18.1139679 278.3972168 C-18.11419621 273.22869319 -18.11134489 268.06018086 -18.10573006 262.89166069 C-18.09761712 255.41876712 -18.09500005 247.94587967 -18.09374207 240.47298218 C-18.09155122 228.34990459 -18.08489025 216.22683371 -18.07543945 204.10375977 C-18.06626618 192.32446323 -18.05918493 180.54516852 -18.05493164 168.76586914 C-18.05466892 168.04029194 -18.05440619 167.31471474 -18.05413551 166.56715035 C-18.05283051 162.92729168 -18.05156679 159.287433 -18.05032361 155.64757431 C-18.03994998 125.43171034 -18.02151113 95.21585868 -18 65 C6.09 65 30.18 65 55 65 C55 59.06 55 53.12 55 47 C36.85 47 18.7 47 0 47 C0 31.49 0 15.98 0 0 Z M-12 72 C-12 147.9 -12 223.8 -12 302 C62.58 302 137.16 302 214 302 C214.020625 268.87625 214.04125 235.7525 214.0625 201.625 C214.071604 191.21146973 214.08070801 180.79793945 214.09008789 170.06884766 C214.09343474 160.63822953 214.09343474 160.63822953 214.09544373 151.20761108 C214.09636587 147.04541477 214.10007485 142.88323155 214.10557556 138.72103882 C214.11254156 133.37759263 214.11447182 128.0341649 214.11307228 122.6907146 C214.11336401 120.75111561 214.11528263 118.81151584 214.11921513 116.87192082 C214.14815346 101.87682578 213.577159 87.00613395 213 72 C138.75 72 64.5 72 -12 72 Z " fill="#000001" transform="translate(588,0)"/>
<path d="M0 0 C12.21 0 24.42 0 37 0 C37.81423135 2.44269406 38.3428088 4.61606224 38.78442383 7.13476562 C38.93175461 7.96937317 39.07908539 8.80398071 39.23088074 9.66387939 C39.46657524 11.02135284 39.46657524 11.02135284 39.70703125 12.40625 C39.87233841 13.34974304 40.03764557 14.29323608 40.20796204 15.26531982 C40.74577368 18.34303819 41.27946603 21.42145082 41.8125 24.5 C42.08619415 26.07412659 42.08619415 26.07412659 42.36541748 27.68005371 C44.59651084 40.52684514 46.73072251 53.3707526 48.55297852 66.2824707 C50.64985778 80.91633347 53.36764411 95.454783 56 110 C57.25421244 101.83842615 58.50542333 93.67639448 59.7543335 85.51400757 C59.95908157 84.17588623 60.16387456 82.83777176 60.36871338 81.49966431 C63.6399074 60.12805888 66.82486576 38.74567948 69.87915039 17.34179688 C70.01623917 16.38821289 70.15332794 15.43462891 70.29457092 14.45214844 C70.54851988 12.68556074 70.80025151 10.91865224 71.04930115 9.15136719 C71.50549273 5.98655742 71.98648502 3.04054493 73 0 C85.21 0 97.42 0 110 0 C111.42667556 2.85335111 111.12598624 5.26878295 111.12698364 8.45985413 C111.12932363 9.46591293 111.12932363 9.46591293 111.13171089 10.49229616 C111.13571437 12.75017586 111.13253377 15.00798888 111.12939453 17.26586914 C111.13074885 18.88028503 111.13252895 20.49470061 111.13470459 22.1091156 C111.13927494 26.50149388 111.13749109 30.89384876 111.1343255 35.28622746 C111.13180029 39.87420418 111.13413985 44.46217885 111.13571167 49.05015564 C111.13753271 56.75487632 111.13512858 64.45958742 111.13037109 72.16430664 C111.12492667 81.08479296 111.1266927 90.00525644 111.1321975 98.92574221 C111.1367282 106.57244598 111.13737945 114.21914285 111.13475883 121.86584753 C111.13319607 126.4383252 111.13300231 131.01079212 111.13629532 135.58326912 C111.13917347 139.88007114 111.13719938 144.17684355 111.13140106 148.47364235 C111.13007324 150.05514222 111.13046794 151.63664456 111.13266373 153.21814346 C111.13537435 155.36783969 111.13199525 157.51743952 111.12698364 159.66712952 C111.1264181 161.47593896 111.1264181 161.47593896 111.12584114 163.32129002 C111 166 111 166 110 167 C106.22245817 167.41130221 102.42010071 167.51685698 98.625 167.6875 C97.55765625 167.74744141 96.4903125 167.80738281 95.390625 167.86914062 C93.85535156 167.9397168 93.85535156 167.9397168 92.2890625 168.01171875 C91.34756348 168.05772217 90.40606445 168.10372559 89.43603516 168.15112305 C87 168 87 168 84 166 C83.63085651 164.17654991 83.63085651 164.17654991 83.63923645 161.92514038 C83.63511246 161.07256149 83.63098846 160.2199826 83.6267395 159.34156799 C83.63752533 158.40433395 83.64831116 157.46709991 83.65942383 156.50146484 C83.65898575 155.51606216 83.65854767 154.53065948 83.65809631 153.51539612 C83.66019211 150.24704408 83.68356065 146.9792003 83.70703125 143.7109375 C83.71262438 141.44935384 83.71689581 139.18776656 83.71989441 136.92617798 C83.73136539 130.96498634 83.76085204 125.00401294 83.79400635 119.04290771 C83.82465867 112.96353101 83.83838939 106.88411915 83.85351562 100.8046875 C83.88571951 88.86969562 83.93694309 76.93486594 84 65 C83.31547892 69.21901216 82.63206293 73.43820151 81.94960022 77.657547 C81.71806021 79.08811591 81.48623623 80.5186389 81.25410461 81.94911194 C79.51242057 92.68366385 77.88362842 103.42820714 76.39013672 114.20019531 C75.27548946 122.19942859 74.12551265 130.1936997 72.97265625 138.1875 C72.3520581 142.49710824 71.75500569 146.80860947 71.18359375 151.125 C70.93492087 152.93750343 70.68622458 154.75000366 70.4375 156.5625 C70.2837793 157.79335327 70.2837793 157.79335327 70.12695312 159.04907227 C69.36303338 164.48965717 69.36303338 164.48965717 67.78222656 166.71191406 C65.33136429 168.48324959 63.67945402 168.34275338 60.67578125 168.29296875 C59.64775391 168.28330078 58.61972656 168.27363281 57.56054688 168.26367188 C56.48869141 168.23853516 55.41683594 168.21339844 54.3125 168.1875 C53.22904297 168.17396484 52.14558594 168.16042969 51.02929688 168.14648438 C48.35236595 168.11110643 45.67643162 168.06174189 43 168 C40.10387973 160.25450073 38.73200565 152.48905051 37.44140625 144.34375 C37.20929688 142.91424276 36.97653018 141.48484212 36.7431488 140.05554199 C36.13147475 136.2982668 35.52876546 132.53960785 34.92797852 128.78057861 C34.32920395 125.04423735 33.72182508 121.30929749 33.11523438 117.57421875 C30.38210367 100.72065675 27.69748763 83.8592977 25 67 C24.67 100 24.34 133 24 167 C21.56283785 168.21858107 19.96725943 168.12925575 17.24609375 168.1328125 C16.30958984 168.13410156 15.37308594 168.13539063 14.40820312 168.13671875 C13.42787109 168.13285156 12.44753906 168.12898437 11.4375 168.125 C10.45330078 168.12886719 9.46910156 168.13273438 8.45507812 168.13671875 C7.51986328 168.13542969 6.58464844 168.13414062 5.62109375 168.1328125 C4.7592749 168.13168457 3.89745605 168.13055664 3.00952148 168.12939453 C1 168 1 168 0 167 C-0.096937 164.84840274 -0.12186783 162.69355889 -0.12025452 160.53977966 C-0.12153615 159.51556816 -0.12153615 159.51556816 -0.12284368 158.47066551 C-0.12450043 156.16588309 -0.11897397 153.86117228 -0.11352539 151.55639648 C-0.11324353 149.91094972 -0.11340122 148.26550284 -0.1139679 146.62005615 C-0.11425593 142.13884241 -0.10835821 137.65765519 -0.10139394 133.17644763 C-0.09516142 128.49857895 -0.09455668 123.82070972 -0.09336853 119.14283752 C-0.09025491 110.27824832 -0.08204111 101.41367138 -0.07201904 92.54908758 C-0.06085885 82.45977798 -0.05534769 72.3704678 -0.05032361 62.28115356 C-0.03985852 41.52076066 -0.02151267 20.76038459 0 0 Z " fill="#030203" transform="translate(455,106)"/>
<path d="M0 0 C0.94220901 -0.00960754 1.88441803 -0.01921509 2.85517883 -0.02911377 C4.3986927 -0.03548859 4.3986927 -0.03548859 5.97338867 -0.04199219 C7.03111984 -0.04769226 8.08885101 -0.05339233 9.17863464 -0.05926514 C11.42913813 -0.06873924 13.67965564 -0.07525863 15.93017578 -0.07910156 C19.33871693 -0.08871866 22.74663216 -0.11968189 26.1550293 -0.15136719 C28.34447885 -0.157906 30.53393272 -0.16315301 32.72338867 -0.16699219 C33.73013138 -0.17933899 34.73687408 -0.19168579 35.77412415 -0.20440674 C46.64428523 -0.17101233 57.29699574 1.66801986 65.57885742 9.16113281 C74.38554219 18.89483703 75.10324715 31.52028057 75.02490234 44.07910156 C75.01636401 46.15952869 75.04531994 48.23722259 75.0769043 50.31738281 C75.12905567 60.39739079 73.45281017 69.25879632 68.57885742 78.16113281 C66.92260742 79.82910156 66.92260742 79.82910156 65.07885742 81.34863281 C64.47041992 81.8578125 63.86198242 82.36699219 63.23510742 82.89160156 C61.57885742 84.16113281 61.57885742 84.16113281 59.57885742 85.16113281 C60.18213867 85.64582031 60.78541992 86.13050781 61.40698242 86.62988281 C69.61750415 93.51612684 73.82004573 100.57832545 74.7797699 111.43362427 C74.87033467 113.89738996 74.90734149 116.35591457 74.92260742 118.82128906 C74.93723022 119.72882431 74.95185303 120.63635956 74.96691895 121.57139587 C75.01306622 124.45543038 75.04741508 127.33940297 75.07885742 130.22363281 C75.21655144 142.69129652 75.5178167 154.84162141 77.57885742 167.16113281 C72.68483808 168.79247259 67.64051946 168.34565884 62.51635742 168.34863281 C61.40196289 168.36087891 60.28756836 168.373125 59.1394043 168.38574219 C57.54515625 168.38864258 57.54515625 168.38864258 55.91870117 168.39160156 C54.45484985 168.39776489 54.45484985 168.39776489 52.96142578 168.40405273 C50.57885742 168.16113281 50.57885742 168.16113281 48.57885742 166.16113281 C47.62374354 163.29707261 47.44186764 160.63247461 47.40527344 157.62719727 C47.3917836 156.73559402 47.37829376 155.84399078 47.36439514 154.92536926 C47.35395676 153.96805405 47.34351837 153.01073883 47.33276367 152.02441406 C47.29981215 149.98209228 47.26660073 147.93977468 47.2331543 145.89746094 C47.18587488 142.68956497 47.14145632 139.48168434 47.10205078 136.27368164 C47.06206734 133.16957827 47.01057651 130.0658221 46.95776367 126.96191406 C46.94934952 126.01472 46.94093536 125.06752594 46.93226624 124.09162903 C46.7959682 113.38309644 46.7959682 113.38309644 42.07885742 104.16113281 C35.67459275 99.03772107 34.89977518 100.9697698 23.57885742 100.16113281 C23.24885742 122.27113281 22.91885742 144.38113281 22.57885742 167.16113281 C18.60668184 167.82316208 15.51715445 168.28410877 11.61791992 168.25878906 C10.73491211 168.25556641 9.8519043 168.25234375 8.94213867 168.24902344 C8.03850586 168.24064453 7.13487305 168.23226562 6.20385742 168.22363281 C5.27702148 168.21912109 4.35018555 168.21460938 3.39526367 168.20996094 C1.12306034 168.19824855 -1.14900646 168.18184654 -3.42114258 168.16113281 C-5.64328218 164.58692237 -5.67027396 161.6587589 -5.66838074 157.49873352 C-5.67079515 156.83040235 -5.67320957 156.16207118 -5.67569715 155.47348756 C-5.68132993 153.23556202 -5.67267447 150.99792245 -5.6640625 148.76000977 C-5.66513546 147.15515058 -5.66707435 145.55029177 -5.66981506 143.94543457 C-5.67466317 139.58826698 -5.66700899 135.23120177 -5.65686202 130.87404656 C-5.64808477 126.31944916 -5.64983888 121.76485499 -5.65022278 117.21025085 C-5.64928624 109.56454756 -5.6406021 101.91888397 -5.62695312 94.27319336 C-5.61121088 85.4219635 -5.6059556 76.57077707 -5.60668868 67.71953422 C-5.60729801 59.21499102 -5.60220234 50.71046202 -5.59389687 42.20592308 C-5.59035801 38.58112668 -5.58853277 34.9563353 -5.58800316 31.33153725 C-5.58700206 27.06917596 -5.5809247 22.80685143 -5.57083702 18.54450226 C-5.56790502 16.97590294 -5.56668806 15.40729939 -5.56726456 13.83869743 C-5.56775182 11.70661901 -5.56213374 9.57464511 -5.55485535 7.44258118 C-5.5531795 6.24668019 -5.55150366 5.05077921 -5.54977703 3.8186388 C-5.34011325 -0.51288159 -3.91136382 0.03209703 0 0 Z M22.57885742 25.16113281 C22.57885742 41.66113281 22.57885742 58.16113281 22.57885742 75.16113281 C33.9117159 75.63308851 33.9117159 75.63308851 43.95385742 71.47363281 C48.22189259 65.39989046 47.88693195 58.41962117 47.82885742 51.28613281 C47.8365918 50.34382813 47.84432617 49.40152344 47.85229492 48.43066406 C47.83255663 41.29527102 47.59284101 34.27955901 43.64135742 28.16113281 C37.78670769 22.48389671 31.2698669 25.16113281 22.57885742 25.16113281 Z " fill="#020202" transform="translate(188.421142578125,105.8388671875)"/>
<path d="M0 0 C1.1653125 -0.00128906 2.330625 -0.00257812 3.53125 -0.00390625 C4.7584375 -0.00003906 5.985625 0.00382812 7.25 0.0078125 C9.09078125 0.00201172 9.09078125 0.00201172 10.96875 -0.00390625 C12.71671875 -0.00197266 12.71671875 -0.00197266 14.5 0 C15.57765625 0.00112793 16.6553125 0.00225586 17.765625 0.00341797 C20.25 0.1328125 20.25 0.1328125 21.25 1.1328125 C21.35402234 2.82509895 21.38797595 4.52172669 21.39476013 6.2171936 C21.40165863 7.31912048 21.40855713 8.42104736 21.41566467 9.55636597 C21.41827805 10.77607086 21.42089142 11.99577576 21.42358398 13.25244141 C21.43384914 15.21178793 21.44411642 17.17113444 21.45446312 19.13048053 C21.46471329 21.24379956 21.47255517 23.35711616 21.47979546 25.47044754 C21.4952243 29.87473763 21.51917584 34.27895533 21.54469299 38.68319702 C21.61595015 51.20981265 21.67558066 63.73647064 21.72680664 76.26318359 C21.7551526 83.17634209 21.79056199 90.08942945 21.83346039 97.00251329 C21.86017851 101.37687232 21.87811768 105.75115084 21.88949764 110.1255753 C21.90080555 113.49604435 21.9249185 116.86640132 21.94702148 120.23681641 C21.94761063 121.44437592 21.94819977 122.65193542 21.94880676 123.89608765 C21.99887746 129.66060041 22.12228145 134.73651602 24.25 140.1328125 C27.21219108 142.91547685 29.81605223 143.34417075 33.75 143.5078125 C37.66851805 143.35785257 40.22350519 142.79245946 43.25 140.1328125 C45.05175544 136.47367279 45.5042739 133.50595612 45.52174377 129.45111084 C45.5314621 128.31818604 45.54118042 127.18526123 45.55119324 126.01800537 C45.55178238 124.78455383 45.55237152 123.55110229 45.55297852 122.28027344 C45.56563751 120.32112 45.56563751 120.32112 45.57855225 118.3223877 C45.59679522 115.48774433 45.60885624 112.65316647 45.61609077 109.81847382 C45.62758839 105.33986766 45.65304699 100.86140689 45.68040466 96.38287354 C45.72201189 89.3046032 45.75445059 82.22632588 45.78287882 75.14799142 C45.83392596 62.45659487 45.89589924 49.7652583 45.96821922 37.07396531 C45.99318744 32.61766498 46.01259735 28.16138414 46.02760136 23.7050395 C46.03532966 21.60481984 46.04525492 19.50462436 46.05615234 17.40441895 C46.06936217 14.83813122 46.07893341 12.27182141 46.08433533 9.70550537 C46.09468307 8.02303711 46.09468307 8.02303711 46.10523987 6.30657959 C46.11102224 4.8354603 46.11102224 4.8354603 46.11692142 3.33462143 C46.25 1.1328125 46.25 1.1328125 47.25 0.1328125 C49.10369611 0.04543605 50.96067541 0.02583097 52.81640625 0.03515625 C53.94111328 0.03837891 55.06582031 0.04160156 56.22460938 0.04492188 C57.40861328 0.05330078 58.59261719 0.06167969 59.8125 0.0703125 C61.00037109 0.07482422 62.18824219 0.07933594 63.41210938 0.08398438 C66.35812226 0.09581575 69.30403681 0.11229963 72.25 0.1328125 C73.03880865 3.61771076 73.3786909 6.83961996 73.39044189 10.40986633 C73.39615204 11.45380051 73.40186218 12.49773468 73.40774536 13.57330322 C73.40942215 15.27592316 73.40942215 15.27592316 73.41113281 17.01293945 C73.41858017 18.81890846 73.41858017 18.81890846 73.42617798 20.66136169 C73.43826721 23.95957161 73.44574108 27.25771826 73.45018864 30.55594277 C73.45312866 32.62366965 73.45723545 34.6913911 73.46169281 36.75911522 C73.47536538 43.2485887 73.48503011 49.73804962 73.4888947 56.2275365 C73.49335846 63.67974338 73.51082852 71.1317653 73.5398953 78.58391601 C73.5616548 84.36681298 73.57160671 90.14965851 73.57293582 95.93259591 C73.57397481 99.37489367 73.5796846 102.81701755 73.59775543 106.25927162 C73.78562158 148.28541736 73.78562158 148.28541736 62.25 160.1328125 C51.95074781 168.12747955 41.26711847 171.11181584 28.25 170.1328125 C17.42695616 168.56387003 8.36778726 165.34135347 1.3125 156.6953125 C-6.3468502 145.90749532 -7.05232634 134.56199931 -6.99291992 121.71264648 C-6.99481827 120.40581406 -6.99671661 119.09898163 -6.99867249 117.75254822 C-7.00348 114.19941996 -6.99592 110.64641915 -6.98571944 107.0933063 C-6.97688508 103.36754949 -6.97869733 99.64179603 -6.9790802 95.91603088 C-6.97814688 89.67145676 -6.96950234 83.42693156 -6.95581055 77.18237305 C-6.94002654 69.95673826 -6.93481474 62.73115675 -6.9355461 55.50550598 C-6.93622018 47.80619432 -6.9292939 40.10690324 -6.9200995 32.40759778 C-6.91796558 30.18811226 -6.91725801 27.96863005 -6.91686058 25.7491436 C-6.91567421 21.62887914 -6.90598223 17.50867841 -6.89526367 13.38842773 C-6.89571686 12.1547345 -6.89617004 10.92104126 -6.89663696 9.64996338 C-6.89237198 8.53554367 -6.88810699 7.42112396 -6.88371277 6.27293396 C-6.88203692 5.29868186 -6.88036108 4.32442976 -6.87863445 3.32065487 C-6.62033694 -1.07252472 -3.76572862 0.0039414 0 0 Z " fill="#050405" transform="translate(365.75,105.8671875)"/>
<path d="M0 0 C1.64510941 0.00015915 3.29022379 0.00585551 4.93530273 0.01586914 C6.23164894 0.01799156 6.23164894 0.01799156 7.55418396 0.02015686 C10.32578941 0.025773 13.09731528 0.0383282 15.86889648 0.05102539 C17.74324428 0.05603831 19.61759334 0.06060158 21.49194336 0.06469727 C26.09679192 0.07574767 30.70158069 0.09302309 35.30639648 0.11352539 C37.95976877 12.82699601 40.26269743 25.54693312 42.19842529 38.38882446 C42.9414682 43.31427459 43.70104541 48.23718667 44.45874023 53.16040039 C44.61308533 54.16541092 44.76743042 55.17042145 44.92645264 56.20588684 C46.32084128 65.26287538 47.77848441 74.30886919 49.25985718 83.35198975 C49.68194389 85.92936803 50.10241615 88.507005 50.52246094 91.0847168 C51.84335591 99.18567555 53.16893051 107.28582381 54.5065918 115.3840332 C55.57128537 121.83095702 56.62792723 128.27916274 57.68023682 134.7281189 C58.0958763 137.26573185 58.5144304 139.80286922 58.93597412 142.33950806 C59.52515017 145.88671566 60.10436466 149.43541878 60.68139648 152.98461914 C60.86119049 154.05233551 61.0409845 155.12005188 61.22622681 156.22012329 C61.38416718 157.20386932 61.54210754 158.18761536 61.70483398 159.20117188 C61.8458252 160.05742661 61.98681641 160.91368134 62.13208008 161.79588318 C62.30639648 164.11352539 62.30639648 164.11352539 61.30639648 168.11352539 C52.39639648 167.78352539 43.48639648 167.45352539 34.30639648 167.11352539 C33.01418444 161.29857121 31.87599396 155.73913686 31.18139648 149.86352539 C31.0950293 149.18290039 31.00866211 148.50227539 30.91967773 147.80102539 C30.47782318 144.18202616 30.30639648 140.77593181 30.30639648 137.11352539 C20.07639648 137.11352539 9.84639648 137.11352539 -0.69360352 137.11352539 C-0.98235352 139.65040039 -1.27110352 142.18727539 -1.56860352 144.80102539 C-2.43342698 152.27061271 -3.48030593 159.69175824 -4.69360352 167.11352539 C-7.83210281 168.15969182 -9.74398655 168.15521905 -13.01782227 167.99243164 C-14.04584961 167.9440918 -15.07387695 167.89575195 -16.13305664 167.84594727 C-17.20491211 167.78987305 -18.27676758 167.73379883 -19.38110352 167.67602539 C-20.46456055 167.62381836 -21.54801758 167.57161133 -22.66430664 167.51782227 C-25.34102943 167.38811323 -28.0173824 167.25314606 -30.69360352 167.11352539 C-29.32215277 155.05746553 -27.45616882 143.11041506 -25.4675293 131.14260864 C-24.56222858 125.69261184 -23.66758178 120.24086292 -22.77172852 114.78930664 C-22.59234741 113.6991777 -22.41296631 112.60904877 -22.22814941 111.48588562 C-20.67841023 102.0551828 -19.1742589 92.61779019 -17.69360352 83.17602539 C-17.21991548 80.15775372 -16.74598446 77.13952038 -16.27172852 74.12133789 C-16.15055664 73.35014114 -16.02938477 72.5789444 -15.90454102 71.78437805 C-13.76938297 58.21816895 -11.58438198 44.65981306 -9.40844727 31.10009766 C-9.24429321 30.07611374 -9.08013916 29.05212982 -8.91101074 27.99711609 C-8.5936942 26.01812781 -8.27591871 24.03921305 -7.9576416 22.06037903 C-7.30261382 17.97679303 -6.65409969 13.89312776 -6.05102539 9.80151367 C-5.87635742 8.6167041 -5.70168945 7.43189453 -5.52172852 6.21118164 C-5.38154297 5.22770752 -5.24135742 4.2442334 -5.09692383 3.23095703 C-4.40359643 -0.40901183 -3.97041106 0.12203326 0 0 Z M14.30639648 38.11352539 C12.08231834 44.90004053 11.17295073 51.84387238 10.14233398 58.89477539 C9.94367664 60.23567589 9.74474818 61.57653624 9.54556274 62.9173584 C9.13071373 65.71749018 8.71929536 68.51809882 8.31030273 71.3190918 C7.78798705 74.89409997 7.2568694 78.46773478 6.72313499 82.04105377 C6.3111234 84.80644814 5.9039373 87.57253691 5.4981575 90.33885193 C5.21063687 92.29283905 4.91900496 94.2462198 4.62728882 96.19958496 C4.45355743 97.39772827 4.27982605 98.59587158 4.10083008 99.83032227 C3.94697845 100.877323 3.79312683 101.92432373 3.63461304 103.00305176 C3.28077178 106.35636803 3.30639648 109.74159216 3.30639648 113.11352539 C10.89639648 113.11352539 18.48639648 113.11352539 26.30639648 113.11352539 C24.17294735 96.25456617 21.73553718 79.46603851 19.11889648 62.67602539 C18.74690122 60.27567357 18.37515522 57.8752831 18.00366211 55.47485352 C17.10743246 49.68729769 16.20818153 43.90021807 15.30639648 38.11352539 C14.97639648 38.11352539 14.64639648 38.11352539 14.30639648 38.11352539 Z " fill="#030303" transform="translate(110.693603515625,105.886474609375)"/>
<path d="M0 0 C57.07535642 0 57.07535642 0 68 9 C78.20369227 21.02578018 78.51374662 34.4703014 78.44604492 49.48730469 C78.4375383 52.36205812 78.46636386 55.23481695 78.49804688 58.109375 C78.54802609 71.43394947 78.03620512 84.5526402 68.3203125 94.765625 C56.32525175 106.23078347 43.37081793 105 27 105 C27 125.46 27 145.92 27 167 C18.09 167 9.18 167 0 167 C0 111.89 0 56.78 0 0 Z M27 25 C27 43.15 27 61.3 27 80 C40.88196601 81.11803399 40.88196601 81.11803399 48 77 C51.27978452 72.28763607 51.44266064 68.06244302 51.3984375 62.53125 C51.40130768 61.73271606 51.40417786 60.93418213 51.40713501 60.1114502 C51.40916783 58.43057543 51.40369289 56.74967658 51.39111328 55.06884766 C51.37504765 52.50759589 51.39098778 49.9479219 51.41015625 47.38671875 C51.40817368 45.74739238 51.40432971 44.10806698 51.3984375 42.46875 C51.40451019 41.70921021 51.41058289 40.94967041 51.4168396 40.16711426 C51.35455482 35.41861297 50.72548632 32.05286739 48 28 C41.68517751 23.62801132 41.68517751 23.62801132 27 25 Z " fill="#030202" transform="translate(0,106)"/>
<path d="M0 0 C23.1 0 46.2 0 70 0 C71.24497833 2.48995665 71.12934372 4.18994911 71.1328125 6.97265625 C71.13410156 7.95427734 71.13539063 8.93589844 71.13671875 9.94726562 C71.13285156 10.97529297 71.12898438 12.00332031 71.125 13.0625 C71.12886719 14.09439453 71.13273437 15.12628906 71.13671875 16.18945312 C71.13542969 17.16978516 71.13414062 18.15011719 71.1328125 19.16015625 C71.13168457 20.06386963 71.13055664 20.96758301 71.12939453 21.89868164 C71 24 71 24 70 25 C68.64905018 25.09268999 67.29332909 25.11747326 65.93920898 25.11352539 C65.06631226 25.11340454 64.19341553 25.11328369 63.29406738 25.11315918 C61.90907043 25.10548523 61.90907043 25.10548523 60.49609375 25.09765625 C59.6517981 25.09664917 58.80750244 25.09564209 57.93762207 25.09460449 C54.77090098 25.0893557 51.60419919 25.07539456 48.4375 25.0625 C41.363125 25.041875 34.28875 25.02125 27 25 C27 41.17 27 57.34 27 74 C38.22 74 49.44 74 61 74 C62.29945577 76.59891154 62.0223077 78.32666656 61.87890625 81.2265625 C61.83580322 82.15549316 61.7927002 83.08442383 61.74829102 84.04150391 C61.65632446 85.81533447 61.65632446 85.81533447 61.5625 87.625 C61.2840625 93.255625 61.2840625 93.255625 61 99 C49.78 99 38.56 99 27 99 C27 121.44 27 143.88 27 167 C18.42 167.33 9.84 167.66 1 168 C0 167 0 167 -0.12304783 164.26885128 C-0.12166514 162.42296083 -0.12166514 162.42296083 -0.12025452 160.53977966 C-0.12153615 159.51556816 -0.12153615 159.51556816 -0.12284368 158.47066551 C-0.12450043 156.16588309 -0.11897397 153.86117228 -0.11352539 151.55639648 C-0.11324353 149.91094972 -0.11340122 148.26550284 -0.1139679 146.62005615 C-0.11425593 142.13884241 -0.10835821 137.65765519 -0.10139394 133.17644763 C-0.09516142 128.49857895 -0.09455668 123.82070972 -0.09336853 119.14283752 C-0.09025491 110.27824832 -0.08204111 101.41367138 -0.07201904 92.54908758 C-0.06085885 82.45977798 -0.05534769 72.3704678 -0.05032361 62.28115356 C-0.03985852 41.52076066 -0.02151267 20.76038459 0 0 Z " fill="#020102" transform="translate(279,106)"/>
<path d="M0 0 C56.1 0 112.2 0 170 0 C170 0.33 170 0.66 170 1 C114.23 1 58.46 1 1 1 C1 15.85 1 30.7 1 46 C28.225 45.505 28.225 45.505 56 45 C56 52.59 56 60.18 56 68 C56.33 68.66 56.66 69.32 57 70 C119.37 70.495 119.37 70.495 183 71 C183 71.33 183 71.66 183 72 C118.65 72 54.3 72 -12 72 C-12 147.9 -12 223.8 -12 302 C62.58 302 137.16 302 214 302 C213.67 299.03 213.34 296.06 213 293 C212.92560593 291.48164488 212.87608794 289.96130694 212.87695217 288.44113064 C212.87496112 287.65338078 212.87297007 286.86563092 212.87091869 286.05400985 C212.87383153 285.22032585 212.87674437 284.38664185 212.87974548 283.5276947 C212.87846385 282.16246236 212.87846385 282.16246236 212.87715632 280.76964957 C212.87551936 277.74346656 212.88099348 274.71733994 212.88647461 271.69116211 C212.88675689 269.51252239 212.88659794 267.33388258 212.8860321 265.15524292 C212.88574574 259.25719527 212.89161656 253.35916805 212.89860606 247.46112514 C212.90486629 241.29118755 212.90544551 235.12124947 212.90663147 228.9513092 C212.90973691 217.27496001 212.9179397 205.59862019 212.92798096 193.92227513 C212.93916652 180.62606873 212.9446587 167.32986325 212.94967639 154.03365314 C212.96012297 126.68909672 212.97790912 99.34454928 213 72 C204.75 72 196.5 72 188 72 C188 71.67 188 71.34 188 71 C196.25 71 204.5 71 213 71 C213.33 69.68 213.66 68.36 214 67 C191.23 66.67 168.46 66.34 145 66 C145 46 145 46 147 43 C147 43.99 147 44.98 147 46 C155.25 46 163.5 46 172 46 C172 46.33 172 46.66 172 47 C163.75 47 155.5 47 147 47 C147 52.94 147 58.88 147 65 C170.76 65 194.52 65 219 65 C220.13467456 67.26934911 220.12435558 68.49115562 220.12304783 71.00988197 C220.12503888 71.8533624 220.12702993 72.69684283 220.12908131 73.56588328 C220.12616847 74.49777614 220.12325563 75.42966899 220.12025452 76.38980103 C220.12153615 77.86856848 220.12153615 77.86856848 220.12284368 79.37721002 C220.1244991 82.70152402 220.11897608 86.02578826 220.11352539 89.35009766 C220.11324351 91.72474669 220.11340128 94.09939581 220.1139679 96.4740448 C220.11422588 102.26638889 220.10987787 108.05871651 220.10353024 113.85105683 C220.0963922 120.58928876 220.09488599 127.32751832 220.09374207 134.0657535 C220.09155194 146.08290166 220.08489291 158.10004303 220.07543945 170.1171875 C220.06626433 181.79264288 220.05918398 193.46809643 220.05493164 205.14355469 C220.05466892 205.86289517 220.05440619 206.58223566 220.05413551 207.32337435 C220.0528305 210.93199424 220.05156678 214.54061414 220.05032361 218.14923406 C220.03995221 248.09949412 220.02226077 278.04974627 220 308 C215.20241845 309.23444788 210.51438101 309.13934196 205.59783936 309.12698364 C204.64688865 309.12854363 203.69593794 309.13010362 202.71617055 309.13171089 C199.52788703 309.13570141 196.33965107 309.13253879 193.15136719 309.12939453 C190.86656669 309.1307494 188.58176641 309.13252981 186.29696655 309.13470459 C180.09077641 309.13926772 173.88460287 309.13749422 167.67841244 309.1343255 C161.1926106 309.13179737 154.7068102 309.1341406 148.2210083 309.13571167 C136.6351729 309.13764813 125.0493451 309.13453783 113.4635109 309.12945233 C102.94962852 309.12498039 92.43575718 309.12576421 81.921875 309.13037109 C69.71670857 309.13571654 57.51154999 309.13771819 45.30638242 309.13475883 C38.84370486 309.13319607 32.38103492 309.13300238 25.91835785 309.13629532 C19.84782271 309.13917241 13.77730853 309.13720136 7.70677567 309.13140106 C5.4721874 309.13007282 3.23759738 309.13046865 1.0030098 309.13266373 C-2.0332757 309.13537259 -5.06949285 309.13199742 -8.10577393 309.12698364 C-9.45033877 309.13032973 -9.45033877 309.13032973 -10.82206655 309.13374341 C-16.88584982 309.11415018 -16.88584982 309.11415018 -18 308 C-18.09805942 304.87760807 -18.12990476 301.77731859 -18.12025452 298.65452576 C-18.12153615 297.16478928 -18.12153615 297.16478928 -18.12284368 295.64495713 C-18.12450149 292.28989819 -18.11897221 288.93488837 -18.11352539 285.57983398 C-18.11324356 283.18562827 -18.11340118 280.79142246 -18.1139679 278.3972168 C-18.11419621 273.22869319 -18.11134489 268.06018086 -18.10573006 262.89166069 C-18.09761712 255.41876712 -18.09500005 247.94587967 -18.09374207 240.47298218 C-18.09155122 228.34990459 -18.08489025 216.22683371 -18.07543945 204.10375977 C-18.06626618 192.32446323 -18.05918493 180.54516852 -18.05493164 168.76586914 C-18.05466892 168.04029194 -18.05440619 167.31471474 -18.05413551 166.56715035 C-18.05283051 162.92729168 -18.05156679 159.287433 -18.05032361 155.64757431 C-18.03994998 125.43171034 -18.02151113 95.21585868 -18 65 C6.09 65 30.18 65 55 65 C55 59.06 55 53.12 55 47 C36.85 47 18.7 47 0 47 C0 31.49 0 15.98 0 0 Z " fill="#0E0C0F" transform="translate(588,0)"/>
<path d="M0 0 C0.33 0.99 0.66 1.98 1 3 C9.25 3 17.5 3 26 3 C26 3.33 26 3.66 26 4 C17.75 4 9.5 4 1 4 C1 9.94 1 15.88 1 22 C24.76 22 48.52 22 73 22 C74.13467456 24.26934911 74.12435558 25.49115562 74.12304783 28.00988197 C74.12503888 28.8533624 74.12702993 29.69684283 74.12908131 30.56588328 C74.12616847 31.49777614 74.12325563 32.42966899 74.12025452 33.38980103 C74.12110894 34.37564599 74.12196337 35.36149096 74.12284368 36.37721002 C74.1244991 39.70152402 74.11897608 43.02578826 74.11352539 46.35009766 C74.11324351 48.72474669 74.11340128 51.09939581 74.1139679 53.4740448 C74.11422588 59.26638889 74.10987787 65.05871651 74.10353024 70.85105683 C74.0963922 77.58928876 74.09488599 84.32751832 74.09374207 91.0657535 C74.09155194 103.08290166 74.08489291 115.10004303 74.07543945 127.1171875 C74.06626433 138.79264288 74.05918398 150.46809643 74.05493164 162.14355469 C74.05466892 162.86289517 74.05440619 163.58223566 74.05413551 164.32337435 C74.0528305 167.93199424 74.05156678 171.54061414 74.05032361 175.14923406 C74.03995221 205.09949412 74.02226077 235.04974627 74 265 C72.35 265.33 70.7 265.66 69 266 C67.44215905 259.31086322 66.71270496 253.03906194 66.75949097 246.17965698 C66.75778212 245.24414635 66.75607327 244.30863571 66.75431263 243.34477627 C66.75104242 240.23872245 66.76198047 237.13288909 66.77294922 234.02685547 C66.77351387 231.78895574 66.77319573 229.55105564 66.77206421 227.31315613 C66.77149179 221.25812358 66.78322822 215.20317072 66.79721212 209.14815664 C66.80973792 202.81273397 66.81089144 196.47730936 66.81326294 190.14187622 C66.81876736 179.51481592 66.83124894 168.88778699 66.84912109 158.26074219 C66.86750324 147.31901189 66.88164829 136.37728952 66.89013672 125.43554688 C66.89066217 124.76012611 66.89118761 124.08470535 66.89172898 123.3888173 C66.89433922 120.00013951 66.8968666 116.61146168 66.89935279 113.2227838 C66.92005726 85.14850161 66.95581193 57.07425416 67 29 C58.75 29 50.5 29 42 29 C42 28.67 42 28.34 42 28 C50.25 28 58.5 28 67 28 C67.33 26.68 67.66 25.36 68 24 C45.23 23.67 22.46 23.34 -1 23 C-1 3 -1 3 0 0 Z " fill="#0E0D0E" transform="translate(734,43)"/>
<path d="M0 0 C5.94 0 11.88 0 18 0 C18 15.51 18 31.02 18 47 C12.06 47 6.12 47 0 47 C0 31.49 0 15.98 0 0 Z " fill="#060506" transform="translate(772,0)"/>
<path d="M0 0 C0.33 0.99 0.66 1.98 1 3 C9.25 3 17.5 3 26 3 C26 3.33 26 3.66 26 4 C17.75 4 9.5 4 1 4 C1 9.94 1 15.88 1 22 C24.76 22 48.52 22 73 22 C74.65875797 25.31751593 74.12889303 29.02597054 74.11352539 32.67236328 C74.11367142 33.56998383 74.11381744 34.46760437 74.1139679 35.39242554 C74.11326953 38.36841218 74.10548067 41.34433675 74.09765625 44.3203125 C74.0957918 46.38011643 74.09436802 48.43992081 74.09336853 50.49972534 C74.08954548 55.92817402 74.07971699 61.35659605 74.06866455 66.78503418 C74.05844588 72.32152954 74.05386993 77.85802919 74.04882812 83.39453125 C74.03809455 94.26303256 74.02102065 105.13151406 74 116 C73.67 116 73.34 116 73 116 C72.67 87.29 72.34 58.58 72 29 C71.01 29.66 70.02 30.32 69 31 C68.49039309 33.51385259 68.49039309 33.51385259 68.48828125 36.4453125 C68.43510742 38.05986328 68.43510742 38.05986328 68.38085938 39.70703125 C68.35830078 40.83496094 68.33574219 41.96289062 68.3125 43.125 C68.27833984 44.26066406 68.24417969 45.39632812 68.20898438 46.56640625 C68.12630498 49.37750579 68.05722063 52.18828553 68 55 C67.67 55 67.34 55 67 55 C67 46.42 67 37.84 67 29 C58.75 29 50.5 29 42 29 C42 28.67 42 28.34 42 28 C50.25 28 58.5 28 67 28 C67.33 26.68 67.66 25.36 68 24 C45.23 23.67 22.46 23.34 -1 23 C-1 3 -1 3 0 0 Z " fill="#3F3F3F" transform="translate(734,43)"/>
<path d="M0 0 C23.1 0 46.2 0 70 0 C69.01 0.33 68.02 0.66 67 1 C66.67 1.99 66.34 2.98 66 4 C66 3.01 66 2.02 66 1 C44.55 1 23.1 1 1 1 C1 55.12 1 109.24 1 165 C2.32 165.66 3.64 166.32 5 167 C3.0625 167.5625 3.0625 167.5625 1 168 C0 167 0 167 -0.12304783 164.26885128 C-0.12166514 162.42296083 -0.12166514 162.42296083 -0.12025452 160.53977966 C-0.12153615 159.51556816 -0.12153615 159.51556816 -0.12284368 158.47066551 C-0.12450043 156.16588309 -0.11897397 153.86117228 -0.11352539 151.55639648 C-0.11324353 149.91094972 -0.11340122 148.26550284 -0.1139679 146.62005615 C-0.11425593 142.13884241 -0.10835821 137.65765519 -0.10139394 133.17644763 C-0.09516142 128.49857895 -0.09455668 123.82070972 -0.09336853 119.14283752 C-0.09025491 110.27824832 -0.08204111 101.41367138 -0.07201904 92.54908758 C-0.06085885 82.45977798 -0.05534769 72.3704678 -0.05032361 62.28115356 C-0.03985852 41.52076066 -0.02151267 20.76038459 0 0 Z " fill="#19171A" transform="translate(279,106)"/>
<path d="M0 0 C0.33 0 0.66 0 1 0 C1 8.91 1 17.82 1 27 C0.01 27.33 -0.98 27.66 -2 28 C-1.34 28.33 -0.68 28.66 0 29 C-0.33 30.98 -0.66 32.96 -1 35 C-1.66 35 -2.32 35 -3 35 C-3.12117187 35.98742187 -3.24234375 36.97484375 -3.3671875 37.9921875 C-3.53476562 39.27351563 -3.70234375 40.55484375 -3.875 41.875 C-4.03742187 43.15117187 -4.19984375 44.42734375 -4.3671875 45.7421875 C-5 49 -5 49 -7 51 C-6.40392964 42.38246967 -5.32904607 33.90786102 -4 25.375 C-2.8944429 18.22893525 -1.82684652 11.12311737 -1.24609375 3.91259766 C-1 2 -1 2 0 0 Z " fill="#0D0C0E" transform="translate(757,155)"/>
<path d="M0 0 C0.33 0.99 0.66 1.98 1 3 C9.25 3 17.5 3 26 3 C26 3.33 26 3.66 26 4 C17.75 4 9.5 4 1 4 C1 9.94 1 15.88 1 22 C24.76 22 48.52 22 73 22 C73 22.33 73 22.66 73 23 C48.58 23 24.16 23 -1 23 C-1 3 -1 3 0 0 Z " fill="#282629" transform="translate(734,43)"/>
<path d="M0 0 C0.33 0 0.66 0 1 0 C0.55348122 8.15484303 -0.11150323 16.04264468 -2 24 C-2.66 23.67 -3.32 23.34 -4 23 C-4.6328125 20.671875 -4.6328125 20.671875 -5.125 17.75 C-5.29257812 16.79609375 -5.46015625 15.8421875 -5.6328125 14.859375 C-6.52803595 7.88806046 -6.52803595 7.88806046 -4.625 4.6875 C-4.08875 4.130625 -3.5525 3.57375 -3 3 C-2.34 3 -1.68 3 -1 3 C-0.67 2.01 -0.34 1.02 0 0 Z " fill="#141014" transform="translate(734,200)"/>
<path d="M0 0 C1.65 0 3.3 0 5 0 C4.6875 2.875 4.6875 2.875 4 6 C3.01 6.66 2.02 7.32 1 8 C0.49039309 10.51385259 0.49039309 10.51385259 0.48828125 13.4453125 C0.45283203 14.52167969 0.41738281 15.59804687 0.38085938 16.70703125 C0.35830078 17.83496094 0.33574219 18.96289062 0.3125 20.125 C0.27833984 21.26066406 0.24417969 22.39632812 0.20898438 23.56640625 C0.12630498 26.37750579 0.05722063 29.18828553 0 32 C-0.33 32 -0.66 32 -1 32 C-1 23.42 -1 14.84 -1 6 C-9.25 6 -17.5 6 -26 6 C-26 5.67 -26 5.34 -26 5 C-17.75 5 -9.5 5 -1 5 C-0.67 3.35 -0.34 1.7 0 0 Z " fill="#343336" transform="translate(802,66)"/>
<path d="M0 0 C2 2 2 2 2.20254517 4.78408813 C2.18033905 5.96989471 2.15813293 7.15570129 2.13525391 8.37744141 C2.12579239 9.03122269 2.11633087 9.68500397 2.10658264 10.3585968 C2.07285906 12.52320046 2.02475777 14.68723663 1.9765625 16.8515625 C1.95040003 18.35084543 1.92513264 19.85014424 1.90072632 21.34945679 C1.83402943 25.29850313 1.75514698 29.24721647 1.67376709 33.19598389 C1.59289152 37.22427575 1.52348377 41.25276316 1.453125 45.28125 C1.31333783 53.18773739 1.1606832 61.09390982 1 69 C-1.97 69.495 -1.97 69.495 -5 70 C-5 69.01 -5 68.02 -5 67 C-3.35 67.33 -1.7 67.66 0 68 C0 45.56 0 23.12 0 0 Z " fill="#191718" transform="translate(210,204)"/>
<path d="M0 0 C5.61 0 11.22 0 17 0 C17 0.33 17 0.66 17 1 C11.72 1 6.44 1 1 1 C1.33 17.83 1.66 34.66 2 52 C0.68 51.34 -0.64 50.68 -2 50 C-1.67 49.34 -1.34 48.68 -1 48 C-0.88177029 46.45857825 -0.82300189 44.91238903 -0.79467773 43.36669922 C-0.7647599 41.92543167 -0.7647599 41.92543167 -0.73423767 40.45504761 C-0.71752518 39.41542877 -0.70081268 38.37580994 -0.68359375 37.3046875 C-0.6524221 35.71081711 -0.6524221 35.71081711 -0.62062073 34.08474731 C-0.55509739 30.68156562 -0.49622727 27.27830511 -0.4375 23.875 C-0.39431743 21.57160634 -0.35070323 19.26822074 -0.30664062 16.96484375 C-0.19941313 11.30997716 -0.09815351 5.65503108 0 0 Z " fill="#1E1B1D" transform="translate(210,130)"/>
<path d="M0 0 C0.33 0 0.66 0 1 0 C1.75863699 3.40007285 2.14236023 6.58477244 2.20532227 10.06567383 C2.22526749 11.04631302 2.24521271 12.02695221 2.26576233 13.03730774 C2.28247482 14.0833165 2.29918732 15.12932526 2.31640625 16.20703125 C2.33718735 17.28756271 2.35796844 18.36809418 2.37937927 19.48136902 C2.44464036 22.92501611 2.50365075 26.36873795 2.5625 29.8125 C2.60570751 32.15039828 2.64932251 34.48828907 2.69335938 36.82617188 C2.80029772 42.55070278 2.90210727 48.27530765 3 54 C2.34 53.67 1.68 53.34 1 53 C0.0814326 49.65275807 -0.12264766 46.48346399 -0.11352539 43.02612305 C-0.11344986 42.06550461 -0.11337433 41.10488617 -0.11329651 40.11515808 C-0.10813522 39.0910231 -0.10297394 38.06688812 -0.09765625 37.01171875 C-0.0962413 35.95338333 -0.09482635 34.89504791 -0.09336853 33.80464172 C-0.08778159 30.43223211 -0.07523144 27.05988946 -0.0625 23.6875 C-0.05748331 21.39778742 -0.0529207 19.10807379 -0.04882812 16.81835938 C-0.03781643 11.21221683 -0.02109126 5.6061132 0 0 Z " fill="#171616" transform="translate(261,210)"/>
<path d="M0 0 C1.64510941 0.00015915 3.29022379 0.00585551 4.93530273 0.01586914 C6.23164894 0.01799156 6.23164894 0.01799156 7.55418396 0.02015686 C10.32578941 0.025773 13.09731528 0.0383282 15.86889648 0.05102539 C17.74324428 0.05603831 19.61759334 0.06060158 21.49194336 0.06469727 C26.09679192 0.07574767 30.70158069 0.09302309 35.30639648 0.11352539 C35.30639648 0.44352539 35.30639648 0.77352539 35.30639648 1.11352539 C23.75639648 1.11352539 12.20639648 1.11352539 0.30639648 1.11352539 C-0.84267471 3.03898979 -0.84267471 3.03898979 -0.69360352 5.11352539 C-2.31986755 6.49584982 -3.98610372 7.83290054 -5.69360352 9.11352539 C-4.69703029 0.14436639 -4.69703029 0.14436639 0 0 Z " fill="#1D1B1B" transform="translate(110.693603515625,105.886474609375)"/>
<path d="M0 0 C0.33 0 0.66 0 1 0 C1.22701146 5.9022979 0.54530031 11.26974696 -0.5625 17.0703125 C-1.07923252 20.03687925 -1.07923252 20.03687925 -1 23.21875 C-1 26 -1 26 -2 28.375 C-3.39397956 32.03419635 -3.1323017 35.09709981 -3 39 C-3.66 39 -4.32 39 -5 39 C-5.33 39.66 -5.66 40.32 -6 41 C-5.37623997 32.00815005 -3.96327756 23.18579371 -2.4375 14.3125 C-2.20078918 12.91738259 -1.96445859 11.5222006 -1.72851562 10.12695312 C-1.15671441 6.75054824 -0.57981045 3.3750399 0 0 Z " fill="#171516" transform="translate(88,221)"/>
<path d="M0 0 C0.33 0 0.66 0 1 0 C1.5339744 3.08120684 2.04985551 6.16517859 2.5625 9.25 C2.71396484 10.12269531 2.86542969 10.99539062 3.02148438 11.89453125 C3.16005859 12.73886719 3.29863281 13.58320313 3.44140625 14.453125 C3.57232666 15.22817383 3.70324707 16.00322266 3.83813477 16.80175781 C4.00822774 19.11173847 3.68559092 20.80085213 3 23 C3 22.34 3 21.68 3 21 C2.34 21 1.68 21 1 21 C0.71125 20.360625 0.4225 19.72125 0.125 19.0625 C-0.82823451 16.84793921 -0.82823451 16.84793921 -3 16 C-2.42655063 13.13275314 -2.1385485 12.1385485 0 10 C-0.66 9.34 -1.32 8.68 -2 8 C-1.6875 6.125 -1.6875 6.125 -1 4 C-0.814375 3.2575 -0.62875 2.515 -0.4375 1.75 C-0.2209375 0.88375 -0.2209375 0.88375 0 0 Z " fill="#0F0E0E" transform="translate(163,214)"/>
<path d="M0 0 C1.13888672 0.10828125 1.13888672 0.10828125 2.30078125 0.21875 C3.29464844 0.3115625 4.28851563 0.404375 5.3125 0.5 C6.79169922 0.63921875 6.79169922 0.63921875 8.30078125 0.78125 C11.04702139 1.04038857 11.04702139 1.04038857 14 1 C20.33333333 1 26.66666667 1 33 1 C26.47126236 5.35249176 16.9669172 4.75476743 9.46875 3.328125 C6.29864696 2.597623 3.14582559 1.82836787 0 1 C0 0.67 0 0.34 0 0 Z " fill="#211E21" transform="translate(381,272)"/>
<path d="M0 0 C0.33 0 0.66 0 1 0 C1.33 2.64 1.66 5.28 2 8 C8.93 8 15.86 8 23 8 C23 6.35 23 4.7 23 3 C24.0625 4.875 24.0625 4.875 25 7 C24.67 7.66 24.34 8.32 24 9 C20.04172765 9.05785647 16.0835633 9.09354717 12.125 9.125 C10.99707031 9.14175781 9.86914062 9.15851563 8.70703125 9.17578125 C7.09248047 9.18544922 7.09248047 9.18544922 5.4453125 9.1953125 C3.95281982 9.21102295 3.95281982 9.21102295 2.43017578 9.22705078 C0 9 0 9 -2 7 C-1.34 4.69 -0.68 2.38 0 0 Z " fill="#151314" transform="translate(718,264)"/>
<path d="M0 0 C0.33 0 0.66 0 1 0 C1.0809313 2.60478883 1.14045434 5.20706653 1.1875 7.8125 C1.21263672 8.55048828 1.23777344 9.28847656 1.26367188 10.04882812 C1.33834499 15.54974762 1.33834499 15.54974762 -0.51171875 18.01171875 C-1.24841797 18.50091797 -1.24841797 18.50091797 -2 19 C-1.8595017 16.2079699 -1.71284617 13.41650204 -1.5625 10.625 C-1.52318359 9.8309375 -1.48386719 9.036875 -1.44335938 8.21875 C-1.11328125 2.2265625 -1.11328125 2.2265625 0 0 Z " fill="#131316" transform="translate(757,155)"/>
<path d="M0 0 C0.66 0 1.32 0 2 0 C3.2890625 1.4609375 3.2890625 1.4609375 4.625 3.375 C5.29402344 4.31472656 5.29402344 4.31472656 5.9765625 5.2734375 C7 7 7 7 7 9 C4.69 9 2.38 9 0 9 C-1.125 3.375 -1.125 3.375 0 0 Z " fill="#111010" transform="translate(66,115)"/>
<path d="M0 0 C0.33 1.32 0.66 2.64 1 4 C1.66 4 2.32 4 3 4 C3.33 3.34 3.66 2.68 4 2 C3.88637738 3.4800841 3.75877092 4.95910074 3.625 6.4375 C3.55539062 7.26121094 3.48578125 8.08492187 3.4140625 8.93359375 C3.27742187 9.61550781 3.14078125 10.29742187 3 11 C2.01 11.495 2.01 11.495 1 12 C-1.8086289 9.1913711 -1.72711179 6.88865706 -2 3 C-1.34 2.01 -0.68 1.02 0 0 Z " fill="#0D0B0C" transform="translate(534,171)"/>
<path d="M0 0 C0.66 0 1.32 0 2 0 C2.33 3.3 2.66 6.6 3 10 C1.68 10.33 0.36 10.66 -1 11 C-0.49396008 8.83125748 -0.00016187 7.00032373 1 5 C0.01 4.67 -0.98 4.34 -2 4 C-1.34 2.68 -0.68 1.36 0 0 Z " fill="#0C0C0C" transform="translate(500,164)"/>
<path d="M0 0 C0 0.66 0 1.32 0 2 C1.32 2.66 2.64 3.32 4 4 C4 5.32 4 6.64 4 8 C-0.41889613 6.64978174 -2.34345343 4.73884332 -5 1 C-3 0 -3 0 0 0 Z " fill="#181619" transform="translate(373,262)"/>
<path d="M0 0 C2.26954631 3.40431947 2.36549949 5.16524202 2.625 9.1875 C2.69976563 10.27417969 2.77453125 11.36085937 2.8515625 12.48046875 C2.92503906 13.72763672 2.92503906 13.72763672 3 15 C0.3555523 11.95035467 -0.44204547 9.82183107 -0.75 5.8125 C-0.82734375 4.93207031 -0.9046875 4.05164063 -0.984375 3.14453125 C-0.98953125 2.43683594 -0.9946875 1.72914063 -1 1 C-0.67 0.67 -0.34 0.34 0 0 Z " fill="#1C181C" transform="translate(702,160)"/>
<path d="M0 0 C0.33 0 0.66 0 1 0 C1 5.94 1 11.88 1 18 C2.32 18.66 3.64 19.32 5 20 C3.0625 20.5625 3.0625 20.5625 1 21 C0 20 0 20 -0.11352539 18.05053711 C-0.10567017 16.8015564 -0.10567017 16.8015564 -0.09765625 15.52734375 C-0.09443359 14.62822266 -0.09121094 13.72910156 -0.08789062 12.80273438 C-0.07951172 11.85720703 -0.07113281 10.91167969 -0.0625 9.9375 C-0.05798828 8.98810547 -0.05347656 8.03871094 -0.04882812 7.06054688 C-0.0370011 4.70696935 -0.02052025 2.35351523 0 0 Z " fill="#212022" transform="translate(279,253)"/>
<path d="M0 0 C0.5534764 2.07553648 1 3.84365964 1 6 C0.01 6.66 -0.98 7.32 -2 8 C-2.73343428 11.06556598 -2.73343428 11.06556598 -3 14 C-3.33 14 -3.66 14 -4 14 C-4.66 10.7 -5.32 7.4 -6 4 C-4.68 4.33 -3.36 4.66 -2 5 C-1.34 3.35 -0.68 1.7 0 0 Z " fill="#262627" transform="translate(239,132)"/>
<path d="M0 0 C0.33 0 0.66 0 1 0 C1.33 6.6 1.66 13.2 2 20 C1.34 19.67 0.68 19.34 0 19 C-1.28816835 14.8423788 -0.92374215 10.98226781 -0.5625 6.6875 C-0.46066406 5.43324219 -0.35882813 4.17898437 -0.25390625 2.88671875 C-0.17011719 1.93410156 -0.08632813 0.98148438 0 0 Z " fill="#201F21" transform="translate(262,244)"/>
<path d="M0 0 C2.625 0.375 2.625 0.375 5 1 C2.47211993 3.79872437 0.79588866 5.45773019 -3 6 C-2.42655063 3.13275314 -2.1385485 2.1385485 0 0 Z " fill="#100E0E" transform="translate(420,266)"/>
<path d="M0 0 C0.33 0 0.66 0 1 0 C1 5.28 1 10.56 1 16 C0.34 16 -0.32 16 -1 16 C-1.33 16.66 -1.66 17.32 -2 18 C-1.48758893 11.97099313 -0.930215 5.97995357 0 0 Z " fill="#212022" transform="translate(84,244)"/>
<path d="M0 0 C2.70272533 2.87164566 3.94791837 4.30991841 4.25 8.3125 C4.1675 9.199375 4.085 10.08625 4 11 C2.68 10.34 1.36 9.68 0 9 C0 6.03 0 3.06 0 0 Z " fill="#0C0B0B" transform="translate(737,150)"/>
<path d="M0 0 C0.33 0 0.66 0 1 0 C1.33 3.96 1.66 7.92 2 12 C-0.55192629 10.72403685 -0.99500868 9.62843884 -2 7 C-1.67 6.01 -1.34 5.02 -1 4 C-0.65772583 2.66893378 -0.32248257 1.33599921 0 0 Z " fill="#191719" transform="translate(163,214)"/>
<path d="M0 0 C0.66 0.66 1.32 1.32 2 2 C2.66 1.34 3.32 0.68 4 0 C4.99 0 5.98 0 7 0 C5.92598892 2.91517292 5.22189824 4.77810176 3 7 C1.5 5.75 1.5 5.75 0 4 C0 2.68 0 1.36 0 0 Z " fill="#110F11" transform="translate(481,175)"/>
<path d="M0 0 C0 2.33333333 0 4.66666667 0 7 C-0.66 7 -1.32 7 -2 7 C-2.66 7.99 -3.32 8.98 -4 10 C-4.25 7.25 -4.25 7.25 -4 4 C-2 1.625 -2 1.625 0 0 Z " fill="#131213" transform="translate(493,219)"/>
<path d="M0 0 C0.33 0 0.66 0 1 0 C1.33 5.61 1.66 11.22 2 17 C0.68 16.34 -0.64 15.68 -2 15 C-1.67 14.34 -1.34 13.68 -1 13 C-0.77049681 10.795636 -0.58924067 8.58607827 -0.4375 6.375 C-0.35371094 5.18648437 -0.26992187 3.99796875 -0.18359375 2.7734375 C-0.12300781 1.85820312 -0.06242188 0.94296875 0 0 Z " fill="#181617" transform="translate(210,165)"/>
<path d="M0 0 C-0.33 2.31 -0.66 4.62 -1 7 C-1.33 7 -1.66 7 -2 7 C-2 5.35 -2 3.7 -2 2 C-5.63 2 -9.26 2 -13 2 C-13 1.67 -13 1.34 -13 1 C-11.20843648 0.83222817 -9.4167455 0.66581706 -7.625 0.5 C-6.62726562 0.4071875 -5.62953125 0.314375 -4.6015625 0.21875 C-2 0 -2 0 0 0 Z " fill="#232223" transform="translate(781,105)"/>
<path d="M0 0 C1.98 0.99 1.98 0.99 4 2 C4.33 2.99 4.66 3.98 5 5 C4.01 5.33 3.02 5.66 2 6 C2 7.65 2 9.3 2 11 C1.67 11 1.34 11 1 11 C0.67 7.37 0.34 3.74 0 0 Z " fill="#131111" transform="translate(721,160)"/>
<path d="M0 0 C0.66 0 1.32 0 2 0 C2.66 0.66 3.32 1.32 4 2 C3.625 5.125 3.625 5.125 3 8 C2.67 7.34 2.34 6.68 2 6 C1.34 6 0.68 6 0 6 C0 4.02 0 2.04 0 0 Z " fill="#0C090D" transform="translate(753,182)"/>
<path d="M0 0 C0.99 0 1.98 0 3 0 C2.34 2.31 1.68 4.62 1 7 C0.01 6.67 -0.98 6.34 -2 6 C-1.49396008 3.83125748 -1.00016187 2.00032373 0 0 Z " fill="#181516" transform="translate(258,173)"/>
<path d="M0 0 C2 2 2 2 4 5 C3.01 6.32 2.02 7.64 1 9 C-1.125 3.375 -1.125 3.375 0 0 Z " fill="#080708" transform="translate(782,105)"/>
<path d="M0 0 C0.66 0.66 1.32 1.32 2 2 C1.625 5.125 1.625 5.125 1 8 C-0.32 8.33 -1.64 8.66 -3 9 C-2.01 6.03 -1.02 3.06 0 0 Z " fill="#111011" transform="translate(235,168)"/>
</svg>
